<?xml version="1.0" standalone="no"?>
<!DOCTYPE svg PUBLIC "-//W3C//DTD SVG 20010904//EN"
 "http://www.w3.org/TR/2001/REC-SVG-20010904/DTD/svg10.dtd">
<svg version="1.0" xmlns="http://www.w3.org/2000/svg"
 width="70.000000pt" height="70.000000pt" viewBox="0 0 70.000000 70.000000"
 preserveAspectRatio="xMidYMid meet">
<metadata>
Created by potrace 1.14, written by Peter Selinger 2001-2017
</metadata>
<g transform="translate(0.000000,70.000000) scale(0.100000,-0.100000)"
fill="#000000" stroke="none">
<path d="M433 626 c-23 -13 -92 -86 -93 -98 0 -16 -21 -7 -69 27 -26 19 -53
35 -60 35 -6 0 -11 4 -11 9 0 15 -34 7 -52 -13 -23 -25 -23 -50 2 -121 11 -32
20 -60 20 -62 0 -1 -13 -3 -30 -3 -20 0 -30 -5 -30 -16 0 -8 -16 -22 -36 -30
-23 -10 -40 -26 -49 -47 -12 -30 -12 -32 17 -54 20 -14 53 -25 89 -29 l59 -7
-6 -66 c-8 -87 5 -121 45 -121 23 0 42 12 81 52 45 46 53 51 61 35 6 -9 16
-17 24 -17 8 0 32 -9 54 -21 22 -11 53 -19 68 -17 26 3 28 7 31 49 2 28 -5 66
-17 98 -14 37 -16 51 -7 51 21 0 109 50 128 73 10 11 16 27 13 35 -3 7 -5 17
-5 21 0 16 -89 46 -148 50 -9 1 -9 7 3 24 8 13 12 27 8 30 -5 6 -17 63 -25
124 -1 7 -5 10 -9 7 -4 -2 -10 0 -14 6 -8 12 -14 12 -42 -4z m44 -32 c11 -30
9 -59 -6 -77 -18 -22 -23 -45 -10 -53 21 -13 6 -24 -33 -24 -34 1 -47 6 -62
26 -21 30 -17 43 33 101 37 41 68 52 78 27z m-246 -36 c13 -8 36 -28 51 -42
l27 -27 -20 -34 c-18 -29 -43 -44 -75 -45 -13 0 -50 82 -58 127 -7 45 26 54
75 21z m114 -119 c-4 -5 -13 -9 -22 -9 -13 0 -13 3 -3 15 13 15 35 11 25 -6z
m286 -49 c10 -6 19 -13 19 -16 0 -20 -26 -44 -67 -61 -85 -36 -87 -36 -106 0
-16 30 -16 36 -3 68 l15 36 61 -9 c34 -4 70 -13 81 -18z m-212 -84 c-20 -47
-33 -56 -79 -56 -30 0 -38 6 -56 38 -20 34 -21 40 -7 74 13 33 19 37 56 40 35
3 47 -2 72 -27 l31 -30 -17 -39z m31 83 c0 -11 -5 -17 -10 -14 -6 4 -8 10 -5
15 3 4 -1 11 -7 13 -8 3 -6 6 5 6 11 1 17 -6 17 -20z m-200 -8 c0 -6 -4 -13
-10 -16 -5 -3 -10 1 -10 9 0 9 5 16 10 16 6 0 10 -4 10 -9z m-36 -99 l-9 -37
-55 3 c-70 3 -110 19 -110 43 0 24 57 60 85 53 13 -3 28 2 40 16 l19 21 19
-32 c16 -25 18 -38 11 -67z m251 -2 c3 -5 -1 -10 -9 -10 -9 0 -16 5 -16 10 0
6 4 10 9 10 6 0 13 -4 16 -10z m-205 -25 c0 -9 -6 -12 -15 -9 -8 4 -12 10 -9
15 8 14 24 10 24 -6z m252 -64 c21 -50 26 -97 12 -111 -14 -14 -94 30 -94 51
0 16 -14 32 -32 35 -5 1 -11 2 -14 3 -17 3 38 67 63 72 37 7 41 4 65 -50z
m-144 27 c-2 -5 -8 -9 -13 -9 -5 0 -11 4 -13 9 -1 5 4 9 13 9 9 0 14 -4 13 -9z
m-48 -28 l22 -30 -34 -43 c-40 -51 -58 -66 -80 -67 -28 0 -32 41 -13 133 7 35
9 37 45 37 31 0 43 -6 60 -30z"/>
<path d="M308 369 c-27 -15 -23 -65 7 -85 31 -20 63 -10 76 23 19 51 -34 91
-83 62z"/>
</g>
</svg>
